<svg xmlns="http://www.w3.org/2000/svg" viewBox="0 -0.5 40 40" shape-rendering="crispEdges">
<metadata>Made with Pixels to Svg https://codepen.io/shshaw/pen/XbxvNj</metadata>
<path stroke="#000000" d="M5 0h30M5 1h30M0 2h8M32 2h8M0 3h8M32 3h8M0 4h8M32 4h8M0 5h2M11 5h3M26 5h3M38 5h2M0 6h2M11 6h3M26 6h3M38 6h2M0 7h2M11 7h3M26 7h3M38 7h2M0 8h2M14 8h3M23 8h3M38 8h2M0 9h2M14 9h3M23 9h3M38 9h2M0 10h2M14 10h3M23 10h3M38 10h2M0 11h2M8 11h6M26 11h6M38 11h2M0 12h2M8 12h6M26 12h6M38 12h2M0 13h2M8 13h6M26 13h6M38 13h2M0 14h2M8 14h9M23 14h9M38 14h2M0 15h2M8 15h9M23 15h9M38 15h2M0 16h2M8 16h9M23 16h9M38 16h2M0 17h2M38 17h2M0 18h2M38 18h2M0 19h2M38 19h2M0 20h2M38 20h2M0 21h2M38 21h2M0 22h2M38 22h2M0 23h2M38 23h2M0 24h2M38 24h2M0 25h2M38 25h2M0 26h2M38 26h2M0 27h2M38 27h2M0 28h2M38 28h2M0 29h5M14 29h12M35 29h5M0 30h5M14 30h12M35 30h5M0 31h5M14 31h12M35 31h5M2 32h3M11 32h6M23 32h6M35 32h3M2 33h3M11 33h6M23 33h6M35 33h3M2 34h3M11 34h5M24 34h5M35 34h3M2 35h3M11 35h3M26 35h3M35 35h3M2 36h3M11 36h3M26 36h3M35 36h3M2 37h3M11 37h3M26 37h3M35 37h3M2 38h12M26 38h12M2 39h12M26 39h12" />
<path stroke="#ffffff" d="M8 2h24M8 3h24M8 4h24M2 5h9M14 5h12M29 5h9M2 6h9M14 6h12M29 6h9M2 7h9M14 7h12M29 7h9M2 8h12M17 8h6M26 8h12M2 9h12M17 9h6M26 9h12M2 10h12M17 10h6M26 10h12M2 11h6M14 11h12M32 11h6M2 12h6M14 12h12M32 12h6M2 13h6M14 13h12M32 13h6M2 14h6M17 14h6M32 14h6M2 15h6M17 15h6M32 15h6M2 16h6M17 16h6M32 16h6M2 17h36M2 18h36M2 19h36M2 20h36M2 21h36M2 22h36M2 23h36M2 24h36M2 25h36M2 26h36M2 27h36M2 28h36M5 29h9M26 29h9M5 30h9M26 30h9M5 31h9M26 31h9M5 32h6M29 32h6M5 33h6M29 33h6M5 34h6M29 34h6M5 35h6M29 35h6M5 36h6M29 36h6M5 37h6M29 37h6" />
</svg>